<svg width="20" height="16" viewBox="0 0 20 16" fill="none" xmlns="http://www.w3.org/2000/svg">
<path d="M5.39444 15.3711C5.99405 15.9707 6.96739 15.9707 7.567 15.3711L15.0046 7.93341C15.2182 7.71985 15.3825 7.46522 15.4893 7.19417C16.2367 7.40362 16.9636 7.51451 17.6043 7.5104C19.1896 7.50219 19.7153 6.80812 19.8878 6.39332C20.0603 5.98262 20.1835 5.12017 19.0705 3.98666C19.0582 3.97434 19.0459 3.96201 19.0335 3.94969C18.3436 3.25973 17.3415 2.62316 16.2039 2.15086C15.9944 2.06461 15.785 1.98658 15.5796 1.91266V1.90034C15.5673 0.988599 14.8321 0.253459 13.9204 0.241138L9.4644 0.179534C8.873 0.17132 8.30625 0.401308 7.89145 0.820215L0.449708 8.25786C-0.149903 8.85747 -0.149903 9.83082 0.449708 10.4304L5.39444 15.3711ZM11.1277 2.84082C11.6246 2.34389 12.4296 2.34389 12.9265 2.84082C13.2222 3.13652 13.3413 3.54311 13.2838 3.92505C13.7726 4.27003 14.3557 4.59037 14.98 4.84911C15.2018 4.93946 15.4153 5.0216 15.6207 5.09142L15.596 3.3008C15.633 3.31723 15.6659 3.32955 15.7028 3.34598C16.6762 3.75256 17.5509 4.30289 18.1136 4.86554C18.1218 4.87375 18.13 4.88197 18.1382 4.89018C18.6721 5.4364 18.7296 5.78549 18.6844 5.89227C18.5448 6.22493 17.0458 6.52063 14.7705 5.57193C14.1052 5.29266 13.481 4.94768 12.9758 4.57395C12.9594 4.59448 12.9389 4.61502 12.9224 4.63555C12.4255 5.13249 11.6205 5.13249 11.1236 4.63555C10.6308 4.14272 10.6308 3.33776 11.1277 2.84082Z" fill="#637381"/>
</svg>
